<svg width="32" height="33" viewBox="0 0 32 33" fill="none" xmlns="http://www.w3.org/2000/svg">
<g clip-path="url(#clip0_27_4453)">
<path d="M15.9857 0.782472C7.15357 0.778901 0 7.9289 0 16.7539C0 23.7325 4.475 29.6646 10.7071 31.8432C11.5464 32.0539 11.4179 31.4575 11.4179 31.0503V28.2825C6.57143 28.8503 6.375 25.6432 6.05 25.1075C5.39286 23.986 3.83929 23.7003 4.30357 23.1646C5.40714 22.5968 6.53214 23.3075 7.83571 25.2325C8.77857 26.6289 10.6179 26.3932 11.55 26.161C11.7536 25.3218 12.1893 24.5718 12.7893 23.9896C7.76786 23.0896 5.675 20.0253 5.675 16.3825C5.675 14.6146 6.25714 12.9896 7.4 11.6789C6.67143 9.51819 7.46786 7.66819 7.575 7.39319C9.65 7.20747 11.8071 8.8789 11.975 9.01104C13.1536 8.69319 14.5 8.52533 16.0071 8.52533C17.5214 8.52533 18.8714 8.70033 20.0607 9.02176C20.4643 8.71461 22.4643 7.2789 24.3929 7.4539C24.4964 7.7289 25.275 9.53604 24.5893 11.6682C25.7464 12.9825 26.3357 14.6218 26.3357 16.3932C26.3357 20.0432 24.2286 23.111 19.1929 23.9968C19.6242 24.4209 19.9667 24.9268 20.2003 25.4848C20.4339 26.0428 20.554 26.6418 20.5536 27.2468V31.2646C20.5821 31.586 20.5536 31.9039 21.0893 31.9039C27.4143 29.7718 31.9679 23.7968 31.9679 16.7575C31.9679 7.9289 24.8107 0.782472 15.9857 0.782472Z" fill="white"/>
</g>
<defs>
<clipPath id="clip0_27_4453">
<rect width="32" height="32" fill="white" transform="translate(0 0.343262)"/>
</clipPath>
</defs>
</svg>
