<svg width="112" height="103" viewBox="0 0 112 103" fill="none" xmlns="http://www.w3.org/2000/svg">
<path d="M88.5092 102.419C86.7808 102.419 85.0381 101.963 83.497 101.052L66.588 91.0872C65.6086 90.514 65.0181 89.4706 65.0181 88.3242C65.0181 87.1778 65.6086 86.1343 66.588 85.5611L83.497 75.5963C86.5936 73.7739 90.4392 73.7739 93.5214 75.5963L110.43 85.5611C111.41 86.1343 112 87.1778 112 88.3242C112 89.4706 111.41 90.514 110.43 91.0872L93.5214 101.052C91.9803 101.963 90.2375 102.419 88.5092 102.419ZM88.5092 76.9632C87.2417 76.9632 85.9743 77.3012 84.8365 77.9626L67.9275 87.9273C67.7258 88.0449 67.697 88.2213 67.697 88.3242C67.697 88.4271 67.7258 88.6034 67.9275 88.721L84.8365 98.6857C87.0977 100.023 89.9207 100.023 92.182 98.6857L109.091 88.721C109.293 88.6034 109.321 88.4271 109.321 88.3242C109.321 88.2213 109.293 88.0449 109.091 87.9273L92.182 77.9626C91.0441 77.3012 89.7767 76.9632 88.5092 76.9632Z" fill="url(#paint0_linear_101_2209)"/>
<path d="M40.1248 46.0404C37.2676 46.0404 34.4251 45.3133 31.874 43.8446L2.42756 26.8883C1.02812 26.0885 0.182617 24.6342 0.182617 23.02C0.182617 21.4058 1.01354 19.9662 2.42756 19.1518L31.874 2.19551C36.9615 -0.727489 43.2736 -0.742032 48.3611 2.19551L77.8075 19.1518C79.207 19.9516 80.0525 21.4058 80.0525 23.02C80.0525 24.6342 79.2215 26.0739 77.8221 26.8883L48.3757 43.8446C45.8392 45.3133 42.982 46.0404 40.1248 46.0404ZM33.2297 41.5032C37.4863 43.9463 42.7633 43.9463 47.0054 41.5032L76.4518 24.547C77.239 24.0816 77.3265 23.3254 77.3265 23.02C77.3265 22.7146 77.239 21.9585 76.4518 21.4931L47.0054 4.53681C42.7488 2.09371 37.4717 2.09371 33.2297 4.53681L3.78325 21.4931C2.99607 21.9585 2.90859 22.7146 2.90859 23.02C2.90859 23.3254 2.99607 24.0816 3.78325 24.547L33.2297 41.5032Z" fill="url(#paint1_linear_101_2209)"/>
<defs>
<linearGradient id="paint0_linear_101_2209" x1="65.0325" y1="88.3242" x2="112" y2="88.3242" gradientUnits="userSpaceOnUse">
<stop stop-color="#E39A65"/>
<stop offset="1" stop-color="#E95F8D"/>
</linearGradient>
<linearGradient id="paint1_linear_101_2209" x1="0.197195" y1="23.02" x2="80.0525" y2="23.02" gradientUnits="userSpaceOnUse">
<stop stop-color="#E39A65"/>
<stop offset="1" stop-color="#E95F8D"/>
</linearGradient>
</defs>
</svg>
