<svg width="32" height="33" viewBox="0 0 32 33" fill="none" xmlns="http://www.w3.org/2000/svg">
<path d="M30.72 0.343262H1.28C0.572 0.343262 0 0.915262 0 1.62326V31.0633C0 31.7713 0.572 32.3433 1.28 32.3433H30.72C31.428 32.3433 32 31.7713 32 31.0633V1.62326C32 0.915262 31.428 0.343262 30.72 0.343262ZM9.492 27.6113H4.744V12.3393H9.492V27.6113ZM7.12 10.2513C6.57571 10.2513 6.04363 10.0899 5.59107 9.78747C5.13851 9.48507 4.78578 9.05527 4.57748 8.55241C4.36919 8.04954 4.31469 7.49621 4.42088 6.96237C4.52707 6.42854 4.78917 5.93818 5.17404 5.5533C5.55892 5.16843 6.04928 4.90633 6.58311 4.80014C7.11695 4.69395 7.67028 4.74845 8.17314 4.95674C8.67601 5.16504 9.10581 5.51777 9.4082 5.97033C9.7106 6.4229 9.872 6.95497 9.872 7.49926C9.868 9.01926 8.636 10.2513 7.12 10.2513ZM27.268 27.6113H22.524V20.1833C22.524 18.4113 22.492 16.1353 20.056 16.1353C17.588 16.1353 17.208 18.0633 17.208 20.0553V27.6113H12.468V12.3393H17.02V14.4273H17.084C17.716 13.2273 19.264 11.9593 21.576 11.9593C26.384 11.9593 27.268 15.1233 27.268 19.2353V27.6113Z" fill="white"/>
</svg>
