<svg width="92" height="91" viewBox="0 0 92 91" fill="none" xmlns="http://www.w3.org/2000/svg">
<path d="M40.5553 69.3386L0.5 45.6014V31.314L40.5553 55.045V69.3386Z" stroke="white"/>
<path d="M0.5 45.008V30.7212L50.4447 1.06931V15.356L0.5 45.008Z" stroke="white"/>
<path d="M0.5 31.3142L12.0508 38.1614L0.5 45.0086V31.3142Z" stroke="white"/>
<path d="M51.4447 21.9007L91.5 45.6317V59.9253L51.4447 36.1881V21.9007Z" stroke="white"/>
<path d="M91.5 60.5149L41.5553 89.5134V75.2201L91.5 46.2153V60.5149Z" stroke="white"/>
<path d="M79.9429 53.0718L91.4999 46.2242V59.925L79.9429 53.0718Z" stroke="white"/>
<path d="M36.3456 45.3542L41.3395 36.973H50.6647L56.1233 45.8784L50.6734 54.26H41.348L36.3456 45.3542Z" stroke="white"/>
</svg>
