<svg width="61" height="64" viewBox="0 0 61 64" fill="none" xmlns="http://www.w3.org/2000/svg">
<path fill-rule="evenodd" clip-rule="evenodd" d="M21.5551 19.323L18.6678 14.8678L29.7926 7.63461L32.6799 12.0898L21.5551 19.323ZM19.9957 26.6688L17.1052 22.2137L14.2179 17.7585L11.3242 13.3066L15.7773 10.4094L26.9021 3.17945L31.3488 0.285522L34.2426 4.74069L37.1299 9.19585L40.0204 13.651L35.5705 16.5449L24.4457 23.7781L19.9957 26.6688ZM34.368 39.7478L39.8243 42.5323L39.5027 36.4065L38.8983 24.7857L38.5767 18.6631L33.4388 22.0044L23.6901 28.3395L18.5521 31.6809L24.0116 34.4654L34.368 39.7478ZM34.0464 33.622L33.7571 28.1271L29.1496 31.124L34.0464 33.622ZM47.737 31.1916H55.6948V57.752H47.737V31.1916ZM61 25.8802V63.0634H42.4318V25.8834L61 25.8802ZM17.1052 28.1271L5.01581 63.2855L0 61.5569L12.0894 26.3984L17.1052 28.1271ZM25.1852 57.752C26.0683 57.7715 26.9464 57.6141 27.768 57.2892C28.5896 56.9643 29.3381 56.4784 29.9696 55.8599C30.6011 55.2415 31.1028 54.503 31.4453 53.6878C31.7878 52.8726 31.9643 51.9971 31.9643 51.1127C31.9643 50.2283 31.7878 49.3528 31.4453 48.5376C31.1028 47.7224 30.6011 46.9839 29.9696 46.3655C29.3381 45.747 28.5896 45.2611 27.768 44.9362C26.9464 44.6113 26.0683 44.4539 25.1852 44.4734C23.4517 44.5116 21.802 45.2279 20.5895 46.4688C19.3771 47.7098 18.6981 49.3767 18.6981 51.1127C18.6981 52.8486 19.3771 54.5156 20.5895 55.7565C21.802 56.9975 23.4517 57.7138 25.1852 57.752ZM37.1234 51.1111C37.1494 52.697 36.8599 54.2722 36.2717 55.7449C35.6835 57.2177 34.8084 58.5585 33.6974 59.6892C32.5864 60.8199 31.2617 61.7179 29.8006 62.3309C28.3394 62.9439 26.771 63.2596 25.1868 63.2596C23.6025 63.2596 22.0341 62.9439 20.573 62.3309C19.1118 61.7179 17.7872 60.8199 16.6762 59.6892C15.5652 58.5585 14.6901 57.2177 14.1018 55.7449C13.5136 54.2722 13.2241 52.697 13.2501 51.1111C13.3015 47.9755 14.5817 44.9858 16.8147 42.7866C19.0477 40.5874 22.0545 39.3549 25.1868 39.3549C28.3191 39.3549 31.3259 40.5874 33.5589 42.7866C35.7918 44.9858 37.072 47.9755 37.1234 51.1111Z" fill="white"/>
</svg>
