<svg width="80" height="47" viewBox="0 0 80 47" fill="none" xmlns="http://www.w3.org/2000/svg">
<path d="M39.5753 46.6757C36.7518 46.6757 33.9426 45.9486 31.4216 44.48L2.32154 27.5258C0.938574 26.7115 0.103027 25.272 0.103027 23.658C0.103027 22.044 0.924168 20.6045 2.32154 19.7902L31.4216 2.83595C36.4492 -0.101241 42.687 -0.101241 47.7147 2.83595L76.8147 19.7902C78.1977 20.59 79.0332 22.044 79.0332 23.658C79.0332 25.272 78.2121 26.7115 76.8147 27.5258L47.7147 44.48C45.2081 45.9486 42.3845 46.6757 39.5609 46.6757H39.5753ZM39.5753 3.34483C37.2272 3.34483 34.8646 3.95555 32.7613 5.17695L3.6613 22.1312C2.88338 22.5965 2.79694 23.3526 2.79694 23.658C2.79694 23.9633 2.88338 24.7195 3.6613 25.1848L32.7613 42.139C36.9678 44.5818 42.1828 44.5818 46.3749 42.139L75.4749 25.1848C76.2673 24.7195 76.3393 23.9633 76.3393 23.658C76.3393 23.3526 76.2529 22.5965 75.4749 22.1312L46.3749 5.17695C44.2717 3.95555 41.9235 3.34483 39.5609 3.34483H39.5753Z" fill="url(#paint0_linear_19_7898)"/>
<defs>
<linearGradient id="paint0_linear_19_7898" x1="0.117433" y1="23.658" x2="79.0332" y2="23.658" gradientUnits="userSpaceOnUse">
<stop stop-color="#E39A65"/>
<stop offset="1" stop-color="#E95F8D"/>
</linearGradient>
</defs>
</svg>
